# xmcd
#
# Track frame offsets:
# 187
# 24925
# 54312
# 79457
#
# Disc length: 1123 seconds
#
#
# Revision: 0
# Processed by: cddbd v1.5.2PL0 Copyright (c) Steve Scherf et al.
# Submitted via: FreeRIP 2.943 
#
DISCID=26046104
DTITLE=Smith, Michael W. - Kentucky Rose - Kentucky Rose from The First Decade 1983-1993
DYEAR=1993
DGENRE=Country
TTITLE0=Kentucky Rose (album version)
TTITLE1=Kentucky Rose (with Michael W. Smith spoken intro)
TTITLE2=Kentucky Rose (with MWS liner)
TTITLE3=Radio Spot
EXTD=
EXTT0=
EXTT1=
EXTT2=
EXTT3=
PLAYORDER=
